<svg id="Layer_1" data-name="Layer 1" xmlns="http://www.w3.org/2000/svg" viewBox="0 0 320 220.51"><defs><style>.cls-1{fill:#537c39;}</style></defs><path class="cls-1" d="M315.51,23.23c-25.69-12-83.56-20.18-118.77,34.6a134,134,0,0,0-20.76,58H151.9a134,134,0,0,0-20.76-58C95.93,3.05,38.05,11.25,12.37,23.23A14.63,14.63,0,0,0,24.68,49.77c5.26-2.4,52.3-22.11,81.85,23.87,33.17,51.6,10.65,111.52-11.33,137.18a14.62,14.62,0,1,0,22.2,19c15.93-18.58,31.42-49.59,34.74-84.73h23.61c3.32,35.14,18.81,66.15,34.73,84.73a14.62,14.62,0,1,0,22.2-19c-12-14-24.13-38.21-27.31-65.7h82.69V115.87h-82.4a104.4,104.4,0,0,1,15.69-42.23c29.53-45.93,76.51-26.3,81.84-23.88a14.63,14.63,0,0,0,12.32-26.53Z" transform="translate(-3.96 -14.45)"/></svg>